<?xml version="1.0" encoding="UTF-8"?>
<svg id="Layer_2" data-name="Layer 2" xmlns="http://www.w3.org/2000/svg" viewBox="0 0 1767.36 865.04">
  <defs>
    <style>
      .cls-1 {
        fill: #00193d;
      }

      .cls-2 {
        fill: #9b7a4e;
      }
    </style>
  </defs>
  <g id="Layer_1-2" data-name="Layer 1">
    <g>
      <path class="cls-1" d="M638.04,218.05h193.51s-.25,183.55-.25,183.55l-1.43,11.44c-.74,5.9-5.5,11.14-9.57,15.17l-8.54,8.46c-47.73,47.34-113.9,65.07-180.82,61.68-28.71-1.45-56.2-6.61-82.95-17.36-19.95-8.01-36.97-19.31-53.91-32.2-19.42-14.78-35.16-31.9-48.93-51.96-29.26-42.62-44.12-92.21-44.49-143.77-.49-69.18,19.6-128.58,66.57-180.3,17.72-19.51,38.95-34.41,62.35-46.85,19.44-10.34,40.14-16.96,61.72-21.55l26.17-3.5c21.95-1.17,43.56-1.11,65.28,2.18,45.2,6.84,82.24,22.14,115.8,52.54,6.14,5.56,16.83,17.29,16.83,17.29l-56.29,71.11s-3.12-2.18-4.37-3.35l-16.36-15.24c-31.03-28.91-76.8-40.41-118.52-34.5-25.55,3.62-47.79,14.52-66.85,30.95l-11.17,11.03c-26.03,25.69-39.85,71.65-41.34,108.3-1.5,37.08,6.61,72.96,26.13,104.54,6.52,10.55,14.56,19.56,23.56,27.85,13.83,12.74,29.3,21.71,47.3,27.5,46.95,15.11,99.37,7.9,138.06-22.87,3.1-2.77,3.96-5.77,3.96-9.8v-68.6s-77.56.23-77.56.23l-24.11.47"/>
      <path class="cls-1" d="M1626.34,391.37l-196.33-.2-41.79,108.41-97.81-.11L1484.52,2.39h89.02s193.32,497,193.32,497l-97.87.21-42.64-108.23ZM1593.5,303.69l-64.15-174.17-65.25,174.46,129.4-.3Z"/>
      <path class="cls-1" d="M64.75,352.46s2.54,1.98,3.77,3.12c29,26.86,68.58,48.97,108.31,53.3,28.2,3.07,60.85,2.29,81.03-16.85,5.67-5.38,9.01-12.37,11.18-19.39,10.5-33.99-16.99-55.95-48.59-65.9l-31.19-9.83c-20.83-6.56-41.03-12.03-61.65-19.56-27.01-9.87-52.48-23.57-72.49-44.01-34.09-34.82-38.58-86.39-26.32-131.94,3.83-14.23,9.98-26.22,18.85-38.02,22.21-29.55,55.01-48.76,91.46-56.61,10.04-2.16,19.51-4.35,29.78-4.92,38.81-2.18,64.76.12,102.09,11.1,28.67,8.43,54.57,21.49,77.54,40.3,1.47,1.21,3.03,2.82,3.03,2.82l-46.4,77.06s-4.63-3.96-6.15-5.31c-23.59-21.03-70.22-39.59-101.81-39.32l-12.82.11c-18.21.15-35.97,6.3-49.77,17.66-10.47,8.62-15.27,19.5-15.01,32.81.78,40.14,58.52,51,94.25,62.74l39.64,13.02c19.57,6.43,37.8,14.77,55.21,25.76,36.64,23.11,55.41,55.71,58.67,98.59,3.29,43.31-9.61,86.35-42.3,115.74-15.68,14.1-32.75,25.47-52.9,32.18-18.33,6.11-36.65,9.61-56.51,10.86l-30.13.1-33.85-3.54c-45.17-4.73-111.36-37.04-143.24-71.81"/>
      <path class="cls-1" d="M1206.52,373.95l20.89-20.6c1.47-1.45,4.31-3.97,4.31-3.97l62.37,55.73s-3.04,3.71-7.66,9.13c-17.01,19.96-36.44,37.8-57.84,53.11l-2.38,1.7c-21.19,13.62-43.91,22.81-68.99,26.62-44.27,6.73-67.83,3.52-94.54,0-34.71-4.57-65.7-20.17-93.67-40.95-57.22-42.52-90.54-107.72-96.43-178.04-2.86-34.16-.12-67.2,8.59-99.96,11.35-42.73,33.29-79.34,64.36-110.88,29.73-30.19,67.53-50.51,109.26-60,42.76-9.72,96.76-7.26,138.11,6.97,25.83,8.89,48.94,21.31,69.12,39.22,8.67,7.7,23.37,24.16,23.37,24.16l-59.92,69.42-17.25-17.62c-33.37-31.2-79.14-45.5-124.58-36.42-43.33,8.66-78.04,38.91-95.81,78.82-19.63,44.07-22.39,93.86-7.8,139.91,16.37,51.64,56.72,92.76,112.46,98.8,30.13,3.26,59.38.42,85.48-14.8,10.14-5.91,19.9-11.83,28.55-20.36Z"/>
    </g>
    <path class="cls-2" d="M0,581.27c441.06-27.26,883.47-27.93,1325.14-18.9,146.45,3.79,295.56,8.8,441.71,18.9-146.14,10.1-295.27,15.11-441.71,18.9-441.67,9.03-884.08,8.36-1325.14-18.9h0Z"/>
    <g>
      <path class="cls-2" d="M1767.14,797.55c-1.47-18.61-10-32.39-26.08-42.14-7.38-4.47-15.22-7.99-23.98-10.76l-16.83-5.31c-2.13-.67-4.41-1.33-6.82-2.02-13.9-4-31.19-8.98-31.44-21.27-.1-4.78,1.63-8.4,5.44-11.41,5.35-4.24,12.31-6.6,19.58-6.66l5.44-.04c.09,0,.17,0,.26,0,12.43,0,31.64,7.17,41.29,15.44.65.56,2.65,2.2,2.65,2.2l2.21,1.82,22.24-35.51-1.39-1.38c-.08-.08-.79-.78-1.51-1.35-9.79-7.71-20.84-13.23-33.78-16.89-15.56-4.4-26.7-5.56-44.16-4.62-4.22.23-8.02,1.02-12.04,1.85l-.98.2c-16.55,3.43-30.86,11.95-40.29,24-4.09,5.23-6.77,10.43-8.43,16.36-6.14,21.93-1.72,42.95,11.82,56.24,7.89,7.75,18.26,13.81,31.69,18.53,6.04,2.12,12.09,3.87,17.94,5.57,2.76.8,5.53,1.6,8.34,2.45l13.24,4.01c8.97,2.72,15.45,7.11,18.24,12.38,1.82,3.42,2.06,7.26.73,11.4-.96,3-2.29,5.23-4.06,6.85-6.37,5.81-16.98,7.85-32.43,6.23-15-1.57-31.25-9.27-44.56-21.13-.58-.52-1.64-1.32-1.76-1.41l-1.51,1.97-23.9,28.66-1.82,1.7c13.6,14.26,42.16,28.03,62.36,30.06l14.37,1.45h.13s12.92-.03,12.92-.03h.14c8.64-.53,16.69-2.01,24.61-4.55,8.09-2.59,15.72-7.05,23.33-13.62,13.5-11.67,20.36-29.63,18.8-49.28Z"/>
      <path class="cls-2" d="M101.77,657.34c-1.45,0-2.89.06-4.32.14v-.14H8.44v205.21h49.52v-61.71h39.49v-.14c1.43.08,2.87.14,4.32.14,39.62,0,71.75-32.12,71.75-71.75s-32.12-71.75-71.75-71.75ZM97.45,757.08h-39.49v-56h39.49c15.46,0,28,12.54,28,28s-12.54,28-28,28Z"/>
      <path class="cls-2" d="M601.21,862.54h57.95l-48.84-71.33c21.44-12.41,35.88-35.57,35.88-62.13,0-39.62-32.12-71.75-71.75-71.75-1.45,0-2.89.06-4.32.14v-.14h-93.14v205.21h49.52v-61.71h32.43l42.25,61.71ZM526.53,701.08h43.62c15.46,0,28,12.54,28,28s-12.54,28-28,28h-43.62v-56Z"/>
      <path class="cls-2" d="M1513.47,862.54h57.95l-48.84-71.33c21.44-12.41,35.88-35.57,35.88-62.13,0-39.62-32.12-71.75-71.75-71.75-1.45,0-2.89.06-4.32.14v-.14h-93.14v205.21h49.52v-61.71h32.43l42.25,61.71ZM1438.79,701.08h43.62c15.46,0,28,12.54,28,28s-12.54,28-28,28h-43.62v-56Z"/>
      <polygon class="cls-2" points="864.53 657.34 806.15 657.34 756.63 657.34 698.25 657.34 698.25 701.08 756.63 701.08 756.63 862.54 806.15 862.54 806.15 701.08 864.53 701.08 864.53 657.34"/>
      <polygon class="cls-2" points="1325.13 699.62 1325.13 657.34 1226.15 657.34 1176.63 657.34 1176.63 862.54 1226.15 862.54 1325.13 862.54 1325.13 820.26 1226.15 820.26 1226.15 781.08 1313.45 781.08 1313.45 738.8 1226.15 738.8 1226.15 699.62 1325.13 699.62"/>
      <path class="cls-2" d="M368.12,862.54h49.52l-83.55-205.21h-49.59l-83.55,205.21h49.52l18.04-44.32h81.56l18.04,44.32ZM286.2,774.8l23.1-56.73,23.1,56.73h-46.19Z"/>
      <polygon class="cls-2" points="1056.06 657.34 1056.06 779.5 970.72 657.34 921.2 657.34 921.2 862.54 970.72 862.54 970.72 740.32 1056.06 862.54 1105.58 862.54 1105.58 657.34 1056.06 657.34"/>
    </g>
  </g>
</svg>